<svg data-name="Layer 20" viewBox="0 0 50 50" xmlns="http://www.w3.org/2000/svg"><path d="M21.7 5.1a2 2 0 0 0-2.2.5L11.1 15H4a2 2 0 0 0-2 2v17a2 2 0 0 0 2 2h7.2l8.4 8.4a2 2 0 0 0 1.4.6l.8-.2A2 2 0 0 0 23 43V7a2 2 0 0 0-1.3-1.9ZM19 38.2l-5.6-5.6A2 2 0 0 0 12 32H6V19h6a2 2 0 0 0 1.5-.7l5.5-6.1v26ZM34.5 11a2 2 0 1 0-2.8 2.8 15.8 15.8 0 0 1 0 22.4 2 2 0 1 0 2.8 2.8 19.8 19.8 0 0 0 0-28Z" fill="#ffffff" class="fill-010101"></path><path d="M39.9 5.6a2 2 0 1 0-2.8 2.8 23.3 23.3 0 0 1 0 33.1 2 2 0 1 0 2.8 2.8 27.3 27.3 0 0 0 0-38.7ZM28.9 16.6a2 2 0 0 0-2.8 2.8 7.9 7.9 0 0 1 0 11.2 2 2 0 1 0 2.8 2.8 11.9 11.9 0 0 0 0-16.8Z" fill="#ffffff" class="fill-010101"></path></svg>